<svg xmlns="http://www.w3.org/2000/svg" xmlns:xlink="http://www.w3.org/1999/xlink" width="194" height="39" viewBox="0 0 194 39">
    <defs>
        <path id="a" d="M14.369 4.685l-9.447 9.907c-1.019 1.073-2.744 1.13-3.819.085-1.075-1.016-1.131-2.738-.085-3.81l5.29-5.532L10.466.96c1.018-1.073 2.743-1.13 3.818-.085 1.047 1.044 1.103 2.738.085 3.81z"/>
        <path id="c" d="M4.582.79l9.928 9.427c1.075 1.017 1.132 2.738.085 3.81-1.018 1.073-2.743 1.13-3.818.086L5.233 8.834.849 4.685C-.226 3.67-.283 1.948.764.875 1.782-.198 3.507-.225 4.582.79z"/>
        <path id="e" d="M10.975 14.113L1.047 4.685C-.028 3.67-.085 1.948.962.875 1.98-.198 3.705-.254 4.78.79l5.544 5.278 4.384 4.15c1.075 1.016 1.132 2.737.085 3.81-1.018 1.044-2.743 1.1-3.818.085z"/>
        <path id="g" d="M1.018 10.923l9.448-9.907c1.018-1.072 2.743-1.129 3.818-.085 1.075 1.017 1.132 2.738.085 3.81l-5.29 5.533-4.157 4.375c-1.019 1.072-2.744 1.129-3.819.084-1.075-1.016-1.103-2.737-.085-3.81z"/>
    </defs>
    <g fill="none" fill-rule="evenodd">
        <path fill="#FC2F30" fill-rule="nonzero" d="M30.492 4.685l-9.448 9.907c-1.018 1.073-2.743 1.13-3.818.085-1.075-1.016-1.132-2.738-.085-3.81l5.29-5.532L26.587.96c1.018-1.073 2.744-1.13 3.819-.085 1.046 1.044 1.103 2.738.085 3.81z"/>
        <g transform="translate(16.123)">
            <mask id="b" fill="#fff">
                <use xlink:href="#a"/>
            </mask>
            <use fill="#F22539" fill-rule="nonzero" xlink:href="#a"/>
            <path fill="#8E0D23" fill-rule="nonzero" d="M0-.875l5.798 12.39c.623 1.356.057 2.964-1.3 3.585-1.358.621-2.97.057-3.593-1.298l-5.827-12.39C-5.544.055-4.978-1.553-3.62-2.174A2.743 2.743 0 0 1 0-.875z" mask="url(#b)" opacity=".25"/>
        </g>
        <path fill="#FF1723" fill-rule="nonzero" d="M11.427 1.016l9.589 9.794a2.68 2.68 0 0 1-.057 3.81 2.693 2.693 0 0 1-3.818-.056L7.58 4.798a2.68 2.68 0 0 1 .056-3.81 2.66 2.66 0 0 1 3.79.028z"/>
        <path fill="#FC2F30" fill-rule="nonzero" d="M4.582 8.129l9.928 9.427c1.075 1.016 1.132 2.738.085 3.81-1.018 1.073-2.743 1.13-3.818.085l-5.544-5.278-4.384-4.15C-.226 11.009-.283 9.287.764 8.214c1.018-1.072 2.743-1.1 3.818-.084z"/>
        <g transform="translate(0 7.339)">
            <mask id="d" fill="#fff">
                <use xlink:href="#c"/>
            </mask>
            <use fill="#05C19D" fill-rule="nonzero" xlink:href="#c"/>
            <path fill="#8E0D23" fill-rule="nonzero" d="M-.99 15.129l12.417-5.787c1.358-.62 2.97-.056 3.593 1.299.622 1.355.056 2.963-1.302 3.584L1.301 20.012c-1.358.62-2.97.056-3.592-1.299A2.668 2.668 0 0 1-.99 15.13z" mask="url(#d)" opacity=".15"/>
        </g>
        <path fill="#05DDB3" fill-rule="nonzero" d="M.962 27.124l9.786-9.54a2.693 2.693 0 0 1 3.819.057 2.68 2.68 0 0 1-.057 3.81l-9.815 9.568a2.693 2.693 0 0 1-3.818-.056 2.74 2.74 0 0 1 .085-3.839z"/>
        <g transform="translate(23.194 16.653)">
            <mask id="f" fill="#fff">
                <use xlink:href="#e"/>
            </mask>
            <use fill="#DD0558" fill-rule="nonzero" xlink:href="#e"/>
            <path fill="#930559" fill-rule="nonzero" d="M16.434-.536L4.1 5.447a2.73 2.73 0 0 1-3.62-1.241C-.17 2.879.396 1.242 1.725.593l12.333-5.984a2.73 2.73 0 0 1 3.62 1.242c.65 1.326.113 2.964-1.244 3.613z" mask="url(#f)" opacity=".41"/>
        </g>
        <path fill="#FF0659" fill-rule="nonzero" d="M37.846 11.742L28.03 21.31a2.693 2.693 0 0 1-3.819-.057 2.68 2.68 0 0 1 .057-3.81l9.815-9.568a2.693 2.693 0 0 1 3.818.056 2.68 2.68 0 0 1-.056 3.81z"/>
        <g>
            <g transform="translate(7.637 23.427)">
                <mask id="h" fill="#fff">
                    <use xlink:href="#g"/>
                </mask>
                <use fill="#05B4D1" fill-rule="nonzero" xlink:href="#g"/>
                <path fill="#1C8DA0" fill-rule="nonzero" d="M16.688 16.088L9.674 4.347c-.764-1.27-.34-2.936.933-3.698a2.715 2.715 0 0 1 3.705.932l7.015 11.741c.764 1.27.34 2.936-.933 3.698-1.273.79-2.942.367-3.706-.932z" mask="url(#h)" opacity=".37"/>
            </g>
        </g>
        <path fill="#06C1ED" fill-rule="nonzero" d="M27.72 38.02l-9.59-9.795a2.68 2.68 0 0 1 .057-3.81 2.693 2.693 0 0 1 3.819.056l9.589 9.794a2.68 2.68 0 0 1-.057 3.81 2.693 2.693 0 0 1-3.818-.056z"/>
        <g fill="#fff" fill-rule="nonzero">
            <path d="M51.946 14.523h8.766V16.8h-6.235v2.385h5.489v2.277h-5.489v2.464h6.315v2.277h-8.846zM67.399 14.523h2.37l5.436 7.207v-7.207h2.53v11.68h-2.184l-5.621-7.42v7.42h-2.531v-11.68zM84.316 20.417v-.027c0-3.322 2.504-6.054 6.074-6.054 2.185 0 3.517.723 4.583 1.795l-1.625 1.875c-.906-.83-1.812-1.313-2.984-1.313-1.972 0-3.384 1.634-3.384 3.644v.026c0 2.01 1.386 3.67 3.384 3.67 1.332 0 2.131-.535 3.064-1.366l1.625 1.661c-1.2 1.286-2.531 2.09-4.77 2.09-3.41 0-5.967-2.653-5.967-6.001zM101.42 14.523h2.558v9.35h5.808v2.33h-8.366v-11.68zM114.848 20.417v-.027c0-3.322 2.61-6.054 6.207-6.054s6.154 2.679 6.154 6v.027c0 3.322-2.61 6.055-6.207 6.055s-6.154-2.68-6.154-6.001zm9.67 0v-.027c0-2.009-1.465-3.67-3.516-3.67-2.052 0-3.49 1.634-3.49 3.643v.027c0 2.01 1.465 3.67 3.516 3.67 2.078 0 3.49-1.634 3.49-3.643zM133.603 21.22v-6.67h2.558v6.617c0 1.902.959 2.893 2.504 2.893s2.505-.964 2.505-2.813V14.55h2.557v6.59c0 3.536-1.971 5.278-5.088 5.278-3.118 0-5.036-1.769-5.036-5.197zM150.68 14.523h4.53c3.65 0 6.18 2.519 6.18 5.814v.026c0 3.295-2.53 5.84-6.18 5.84h-4.53v-11.68zm4.53 9.376c2.104 0 3.516-1.42 3.516-3.482v-.027c0-2.063-1.412-3.536-3.516-3.536h-1.972v7.045h1.972zM167.998 14.523h8.765V16.8h-6.234v2.385h5.488v2.277h-5.488v2.464h6.314v2.277h-8.845zM183.423 14.523h2.371l5.435 7.207v-7.207h2.531v11.68h-2.158l-5.621-7.42v7.42h-2.531v-11.68z"/>
        </g>
    </g>
</svg>
